<?xml version="1.0" standalone="no"?>
<!DOCTYPE svg PUBLIC "-//W3C//DTD SVG 20010904//EN"
 "http://www.w3.org/TR/2001/REC-SVG-20010904/DTD/svg10.dtd">
<svg version="1.0" xmlns="http://www.w3.org/2000/svg"
 width="600.000000pt" height="600.000000pt" viewBox="0 0 600.000000 600.000000"
 preserveAspectRatio="xMidYMid meet">
<metadata>
Created by potrace 1.14, written by Peter Selinger 2001-2017
</metadata>
<g transform="translate(0.000000,600.000000) scale(0.100000,-0.100000)"
fill="#000000" stroke="none">
<path d="M4125 4450 c-4 -6 -31 -82 -60 -168 -29 -86 -251 -732 -494 -1435
-243 -703 -441 -1282 -441 -1288 0 -6 75 -8 196 -7 l197 3 59 175 c32 96 65
194 74 218 l16 42 592 0 593 0 75 -217 75 -218 201 -3 200 -2 -29 82 c-16 46
-243 700 -503 1453 l-474 1370 -135 3 c-89 2 -138 -1 -142 -8z m203 -815 c80
-255 401 -1261 408 -1279 6 -15 -38 -16 -471 -16 -377 0 -476 3 -473 13 2 6
109 337 238 735 129 397 237 719 241 715 3 -5 29 -80 57 -168z"/>
<path d="M640 2995 l0 -1455 493 0 c492 0 613 6 761 36 305 61 623 248 811
474 252 305 372 687 336 1072 -49 524 -335 944 -796 1169 -182 88 -319 127
-525 149 -52 5 -317 10 -587 10 l-493 0 0 -1455z m1090 1100 c492 -74 851
-448 919 -958 45 -334 -75 -700 -308 -935 -87 -88 -174 -150 -288 -206 -198
-98 -309 -116 -730 -116 l-313 0 0 1115 0 1115 313 0 c221 0 340 -4 407 -15z"/>
</g>
</svg>
